<?xml version="1.0" standalone="no"?>
<!DOCTYPE svg PUBLIC "-//W3C//DTD SVG 20010904//EN"
 "http://www.w3.org/TR/2001/REC-SVG-20010904/DTD/svg10.dtd">
<svg version="1.0" xmlns="http://www.w3.org/2000/svg"
 width="460.000000pt" height="460.000000pt" viewBox="0 0 460.000000 460.000000"
 preserveAspectRatio="xMidYMid meet">
<metadata>
Created by potrace 1.14, written by Peter Selinger 2001-2017
</metadata>
<g transform="translate(0.000000,460.000000) scale(0.100000,-0.100000)"
fill="#000000" stroke="none">
<path d="M0 2300 l0 -2300 2300 0 2300 0 0 2300 0 2300 -307 0 c-292 0 -503
-13 -503 -32 0 -4 -11 -8 -25 -8 -14 0 -25 -4 -25 -10 0 -5 -18 -10 -40 -10
-22 0 -40 -4 -40 -9 0 -5 -42 -12 -94 -16 -70 -5 -93 -11 -90 -20 4 -10 -20
-15 -95 -20 -56 -4 -98 -11 -95 -16 3 -5 -22 -9 -56 -9 -34 0 -59 -4 -56 -9 4
-5 -50 -12 -124 -16 -71 -4 -130 -11 -130 -16 0 -5 -39 -9 -86 -9 -47 0 -83
-4 -80 -8 3 -5 -97 -12 -223 -16 -251 -8 -683 2 -675 16 3 4 -36 8 -86 8 -50
0 -89 4 -86 9 3 5 -53 12 -124 16 -72 4 -130 11 -130 16 0 5 -25 9 -56 9 -30
0 -53 4 -50 9 3 5 -39 12 -94 16 -72 5 -100 10 -100 20 0 9 -26 15 -90 20 -49
4 -90 11 -90 16 0 5 -18 9 -40 9 -22 0 -40 5 -40 10 0 6 -11 10 -25 10 -14 0
-25 4 -25 8 0 18 -220 32 -512 32 l-308 0 0 -2300z m2562 1742 l33 -7 -40 -6
-40 -6 41 -2 c66 -2 154 -23 154 -36 0 -7 21 -15 52 -19 30 -4 47 -10 40 -15
-7 -4 16 -17 59 -31 48 -15 66 -26 57 -31 -10 -7 -9 -9 5 -9 9 0 25 -4 35 -9
9 -5 26 -12 37 -16 16 -5 17 -8 5 -15 -13 -8 -12 -10 2 -10 24 0 78 -33 78
-47 0 -7 12 -16 26 -19 16 -4 22 -9 14 -14 -7 -4 5 -15 32 -28 29 -14 36 -21
23 -22 -18 0 -17 -2 5 -15 14 -8 33 -18 43 -21 10 -4 16 -12 13 -19 -2 -7 7
-18 20 -26 14 -7 22 -19 20 -26 -3 -7 -1 -13 5 -13 6 0 17 -7 25 -15 11 -10
12 -15 3 -15 -7 0 1 -11 17 -25 19 -16 24 -25 14 -25 -9 0 -3 -8 13 -18 15 -9
25 -22 23 -29 -3 -7 6 -21 20 -32 14 -11 23 -24 20 -30 -3 -5 1 -11 9 -15 8
-3 15 -14 15 -24 0 -10 9 -27 19 -36 11 -10 17 -24 14 -32 -3 -8 0 -14 6 -14
6 0 11 -11 11 -25 0 -14 7 -28 16 -32 8 -3 13 -11 10 -18 -2 -7 2 -22 10 -34
12 -16 12 -21 2 -21 -9 0 -10 -3 -2 -8 6 -4 14 -24 18 -44 4 -21 12 -38 19
-39 8 0 8 -2 -1 -6 -9 -4 -10 -8 -2 -18 12 -15 20 -58 21 -117 1 -21 8 -43 16
-49 10 -9 11 -14 2 -19 -7 -5 -8 -13 -3 -21 12 -19 13 -119 1 -119 -6 0 -6 -5
1 -12 12 -16 13 -98 0 -98 -5 0 -6 -5 -3 -10 4 -6 4 -19 0 -28 -8 -18 -11 -44
-20 -146 -3 -33 -9 -62 -14 -65 -5 -3 -12 -25 -16 -48 -4 -24 -11 -43 -16 -43
-5 0 -9 -13 -9 -30 0 -16 -4 -30 -10 -30 -5 0 -10 -7 -10 -16 0 -19 -69 -163
-87 -182 -7 -7 -13 -20 -13 -27 0 -8 -12 -27 -27 -43 -41 -42 -73 -85 -73 -97
0 -5 -12 -21 -25 -34 -14 -13 -25 -27 -25 -32 0 -5 -7 -9 -15 -9 -8 0 -21 -12
-29 -27 -8 -16 -35 -41 -60 -58 -25 -16 -46 -36 -46 -42 0 -7 -8 -13 -18 -13
-10 0 -28 -13 -40 -30 -13 -17 -29 -30 -37 -30 -7 0 -26 -11 -42 -23 -15 -13
-40 -27 -55 -31 -16 -3 -28 -11 -28 -16 0 -6 -7 -10 -15 -10 -8 0 -15 -4 -15
-9 0 -5 -14 -13 -32 -16 -17 -4 -45 -16 -62 -26 -17 -10 -44 -19 -61 -19 -16
0 -43 -7 -59 -15 -16 -8 -59 -19 -95 -25 -217 -30 -234 -31 -325 -20 -146 17
-226 31 -231 40 -3 5 -24 11 -48 15 -52 8 -107 27 -107 36 0 4 -16 10 -36 14
-20 3 -46 15 -57 26 -12 11 -33 23 -46 26 -14 3 -36 17 -49 30 -12 12 -29 23
-37 23 -19 0 -55 31 -55 47 0 7 -8 13 -19 13 -10 0 -27 11 -37 25 -10 14 -23
25 -29 25 -17 0 -165 162 -165 181 0 11 -7 19 -15 19 -8 0 -15 6 -15 13 0 7
-9 19 -20 27 -11 8 -20 20 -20 26 0 7 -4 14 -8 16 -11 4 -72 118 -72 135 0 7
-4 13 -10 13 -5 0 -10 6 -10 13 0 15 -30 79 -40 87 -4 3 -10 25 -14 50 -4 24
-11 49 -15 55 -11 13 -40 155 -47 231 -3 32 -10 60 -15 62 -5 2 -4 12 2 24 8
15 8 22 -1 28 -9 6 -9 13 0 31 10 18 10 24 1 27 -9 3 -9 7 0 18 9 11 9 18 1
26 -9 9 -9 15 0 26 9 10 9 15 -1 22 -9 5 -10 10 -2 14 6 4 11 17 11 29 0 21 3
47 15 112 4 17 6 37 7 45 0 8 5 20 10 27 5 7 7 16 4 21 -3 5 1 20 9 35 7 14
11 28 8 31 -3 3 0 12 7 21 7 8 9 15 5 15 -4 0 0 11 9 25 11 17 12 25 5 25 -8
0 -6 7 4 18 10 10 17 26 17 35 0 9 5 19 10 22 6 3 10 13 10 21 0 8 9 24 20 36
10 12 17 24 15 28 -3 4 2 13 10 20 8 7 15 18 15 26 0 7 7 17 16 22 8 5 16 16
18 25 1 9 13 25 26 37 12 11 17 20 10 20 -7 0 -1 9 14 21 14 11 24 25 21 29
-3 5 3 15 15 22 11 7 20 18 20 24 0 6 11 17 25 24 18 10 22 16 13 21 -9 6 -7
10 7 15 11 4 24 13 28 21 4 7 16 13 25 13 14 0 15 2 3 9 -12 8 -9 11 12 16 15
4 27 11 27 16 0 5 8 9 18 9 14 0 15 2 2 10 -9 6 -10 10 -3 10 7 0 25 12 40 26
15 15 41 32 56 39 16 6 28 16 27 20 -1 5 17 16 40 25 23 9 42 20 42 26 0 5 30
19 67 31 36 12 59 23 51 23 -24 2 21 18 51 19 15 1 29 7 32 15 6 16 85 35 150
37 l42 2 -35 7 -35 6 35 7 c82 16 437 16 512 -1z"/>
</g>
</svg>
